<svg width="30" height="30" xmlns="http://www.w3.org/2000/svg">
  <g fill="#2684FF">
    <path d="M1.426 0A1.426 1.426 0 0 0 0 1.426c0 .065.004.13.013.193L4.01 28.1a1.94 1.94 0 0 0 1.925 1.66h18.154a1.426 1.426 0 0 0 1.426-1.205L29.5 1.62A1.426 1.426 0 0 0 28.074 0H1.426zm17.518 19.762h-7.881l-2.128-11.04h12.053l-2.044 11.04z"/>
    <path d="M28.409 11.04h-5.32L21.045 19.8h-7.881L9.35 28.573a1.94 1.94 0 0 0 1.214.427h18.154a1.426 1.426 0 0 0 1.426-1.205L28.409 11.04z" fill-opacity=".4"/>
  </g>
</svg> 