<svg width="400" height="400" xmlns="http://www.w3.org/2000/svg">
  <g>
    <path d="M200,350 L200,350 L25,150 L50,25 L100,150 L200,350 L300,150 L350,25 L375,150 L200,350 Z" fill="#E24329"/>
    <path d="M200,350 L200,350 L100,150 L50,25 L100,150 L200,350 Z" fill="#FC6D26"/>
    <path d="M50,25 L50,25 L25,150 L100,150 L50,25 Z" fill="#FCA326"/>
    <path d="M200,350 L200,350 L300,150 L350,25 L300,150 L200,350 Z" fill="#FC6D26"/>
    <path d="M350,25 L350,25 L375,150 L300,150 L350,25 Z" fill="#FCA326"/>
  </g>
</svg> 