<?xml version="1.0" encoding="UTF-8"?>
<svg version="1.1" xmlns="http://www.w3.org/2000/svg" width="500" height="500">
<path d="M0 0 C165 0 330 0 500 0 C500 165 500 330 500 500 C335 500 170 500 0 500 C0 335 0 170 0 0 Z " fill="#131620" transform="translate(0,0)"/>
<path d="M0 0 C106.37938596 0 106.37938596 0 123.125 5.75 C124.25446045 6.13514771 124.25446045 6.13514771 125.40673828 6.52807617 C149.69063235 15.11237851 169.65426013 33.05713273 181.0703125 56.0546875 C192.39998323 80.12122655 193.75949732 110.23478167 184.89746094 135.36523438 C180.67090088 146.70374316 175.51000203 156.48277924 168 166 C167.33226562 166.84691406 166.66453125 167.69382812 165.9765625 168.56640625 C159.7467206 175.96579096 151.70856006 182.64571997 143 187 C143 187.66 143 188.32 143 189 C163.85656425 176.97052495 178.74874608 158.54945958 186.4375 135.75 C186.67227051 135.05455078 186.90704102 134.35910156 187.14892578 133.64257812 C190.67702749 122.43413066 191.34115633 111.31678173 191.3125 99.625 C191.32861328 98.31789063 191.34472656 97.01078125 191.36132812 95.6640625 C191.36950439 79.18070465 187.5352175 63.7709049 178.8203125 49.70703125 C178.54960937 49.14371094 178.27890625 48.58039063 178 48 C178.33 47.34 178.66 46.68 179 46 C189.10999561 58.3566613 195.97065219 71.51882157 200 87 C200.66 87 201.32 87 202 87 C203.11066123 84.69043322 204.21353347 82.37762667 205.3125 80.0625 C205.62123047 79.42248047 205.92996094 78.78246094 206.24804688 78.12304688 C210.19609337 69.76981166 212.57153848 62.37233928 212.5 53.0625 C212.49355469 52.18440674 212.48710937 51.30631348 212.48046875 50.40161133 C212.22491293 41.35207699 209.84122085 35.46832107 203.3125 29.125 C194.07400598 21.72023352 183.51362147 20.90816796 172.125 20.4375 C170.66320312 20.37272461 170.66320312 20.37272461 169.171875 20.30664062 C166.78137198 20.20117726 164.39077556 20.09905825 162 20 C168.79871372 13.20128628 185.68349933 14.70871751 194.5 14.6875 C195.59699219 14.68218262 196.69398438 14.67686523 197.82421875 14.67138672 C209.41676348 14.77199193 219.64376084 16.77375891 228.8125 24.3125 C235.6592112 32.72417376 238.57625206 40.37551263 238.375 51.34375 C235.9852301 74.64400655 220.34556921 95.70456821 204.8046875 112.3515625 C202.4922951 115.74507342 202.3278075 118.23539427 202 122.3125 C199.49672609 147.08834672 189.73302013 168.39310377 172 186 C170.9343961 186.85390955 169.86277663 187.70036857 168.78515625 188.5390625 C165.89368762 191.0939366 165.3571767 192.53039765 164 196 C161.72265625 197.73046875 161.72265625 197.73046875 159.0625 199.1875 C157.74958984 199.92033203 157.74958984 199.92033203 156.41015625 200.66796875 C155.21712891 201.32732422 155.21712891 201.32732422 154 202 C153.01 202.66 152.02 203.32 151 204 C151.56847656 204.556875 152.13695312 205.11375 152.72265625 205.6875 C157.08598287 209.99983616 161.26164721 214.37905737 165.25390625 219.03515625 C167.09615675 221.10820324 169.02401662 223.05435802 171 225 C173.59982183 227.55990134 176.06268398 230.1677954 178.4375 232.9375 C181.71010493 236.74684196 185.23100437 240.24821109 188.8046875 243.7734375 C191.43191804 246.43806634 193.8639149 249.23379965 196.29296875 252.078125 C198.63272189 254.71235509 201.15518482 257.13566917 203.71484375 259.5546875 C205 261 205 261 205 263 C195.394417 263.25575873 185.79001902 263.45075651 176.1817646 263.56993389 C171.71923035 263.62715867 167.2590379 263.70465626 162.79785156 263.82983398 C158.48581126 263.95005861 154.17601073 264.01526518 149.86242294 264.04364967 C148.22358826 264.06385352 146.58486567 264.10331253 144.94699478 264.16303062 C132.08521502 264.61299133 132.08521502 264.61299133 126.87591553 260.58340454 C124.22607422 257.62036133 124.22607422 257.62036133 122.06466675 254.66145325 C119.9089611 251.88264655 118.05844754 250.65589523 115 249 C112.89453125 246.87109375 112.89453125 246.87109375 110.8125 244.4375 C107.61374044 240.78101445 104.33667193 237.28398286 100.875 233.875 C94.70745288 227.77470028 88.88821184 221.81846344 85 214 C83.39717652 211.03182257 81.79216733 208.93485578 79 207 C74.36740372 205.99359806 69.85096875 206.02231606 65.125 206.0625 C60.79375 206.041875 56.4625 206.02125 52 206 C52 220.19 52 234.38 52 249 C49.03 249 46.06 249 43 249 C43 249.66 43 250.32 43 251 C46.63 251 50.26 251 54 251 C54 236.81 54 222.62 54 208 C59.7234375 207.7525 59.7234375 207.7525 65.5625 207.5 C66.75174072 207.42716797 67.94098145 207.35433594 69.16625977 207.27929688 C76.84300003 207.1190282 76.84300003 207.1190282 80.33935547 209.78125 C85 215.04194224 85 215.04194224 85 217 C78.07 217 71.14 217 64 217 C64 231.19 64 245.38 64 260 C47.17 260 30.34 260 13 260 C13 257.03 13 254.06 13 251 C16.96 251 20.92 251 25 251 C25 250.34 25 249.68 25 249 C24.28457031 249.08378906 23.56914062 249.16757812 22.83203125 249.25390625 C21.33736328 249.40666016 21.33736328 249.40666016 19.8125 249.5625 C18.84957031 249.66691406 17.88664062 249.77132812 16.89453125 249.87890625 C11.25812936 250.05416047 5.62251572 249.43250121 0 249 C0 166.83 0 84.66 0 0 Z " fill="#A755F5" transform="translate(157,108)"/>
<path d="M0 0 C55.38563327 0 55.38563327 0 71.1640625 15.06640625 C82.02674037 26.43763646 85.47425355 41.01253813 85.28320312 56.35229492 C84.85009378 71.88681146 81.19438283 85.66790068 70 97 C50.06225897 114.21437337 25.50077425 112 0 112 C0 75.04 0 38.08 0 0 Z " fill="#12151F" transform="translate(209,155)"/>
<path d="M0 0 C0 43.56 0 87.12 0 132 C-11.40659622 135.11088988 -20.80900148 136.19406014 -32.4375 136.25 C-34.03948242 136.2809375 -34.03948242 136.2809375 -35.67382812 136.3125 C-46.69798407 136.36637492 -55.36926032 133.98678926 -64 127 C-70.8160089 120.1839911 -74.08866499 111.59315927 -74.3125 102.0625 C-73.94428786 69.07069213 -43.35640443 40.36131905 -21.625 18.5 C-20.98344971 17.85369629 -20.34189941 17.20739258 -19.6809082 16.54150391 C-3.08156687 0 -3.08156687 0 0 0 Z " fill="#141720" transform="translate(155,208)"/>
<path d="M0 0 C1.64548828 -0.00797607 1.64548828 -0.00797607 3.32421875 -0.01611328 C14.91676348 0.08449193 25.14376084 2.08625891 34.3125 9.625 C41.1592112 18.03667376 44.07625206 25.68801263 43.875 36.65625 C41.4852301 59.95650655 25.84556921 81.01706821 10.3046875 97.6640625 C7.9922951 101.05757342 7.8278075 103.54789427 7.5 107.625 C4.74817024 134.86089772 -6.96202633 158.29736076 -27.9375 176.125 C-33.32589565 180.35210348 -39.08066666 184.82298142 -45.5 187.3125 C-48.84685429 186.36597744 -50.87407379 184.15480799 -53.25 181.6875 C-53.86359375 181.05585938 -54.4771875 180.42421875 -55.109375 179.7734375 C-55.56828125 179.29132813 -56.0271875 178.80921875 -56.5 178.3125 C-54.04419619 175.53529905 -51.38836844 174.09417399 -48.125 172.375 C-28.76961426 161.26791423 -15.1103496 141.96148619 -8.0625 121.0625 C-7.82772949 120.36705078 -7.59295898 119.67160156 -7.35107422 118.95507812 C-3.82297251 107.74663066 -3.15884367 96.62928173 -3.1875 84.9375 C-3.17138672 83.63039063 -3.15527344 82.32328125 -3.13867188 80.9765625 C-3.13049561 64.49320465 -6.9647825 49.0834049 -15.6796875 35.01953125 C-15.95039063 34.45621094 -16.22109375 33.89289063 -16.5 33.3125 C-16.005 32.3225 -16.005 32.3225 -15.5 31.3125 C-5.39000439 43.6691613 1.47065219 56.83132157 5.5 72.3125 C6.16 72.3125 6.82 72.3125 7.5 72.3125 C8.61066123 70.00293322 9.71353347 67.69012667 10.8125 65.375 C11.12123047 64.73498047 11.42996094 64.09496094 11.74804688 63.43554688 C15.69609337 55.08231166 18.07153848 47.68483928 18 38.375 C17.99355469 37.49690674 17.98710937 36.61881348 17.98046875 35.71411133 C17.72491293 26.66457699 15.34122085 20.78082107 8.8125 14.4375 C-0.42599402 7.03273352 -10.98637853 6.22066796 -22.375 5.75 C-23.34953125 5.70681641 -24.3240625 5.66363281 -25.328125 5.61914062 C-27.71862802 5.51367726 -30.10922444 5.41155825 -32.5 5.3125 C-25.70128628 -1.48621372 -8.81650067 0.02121751 0 0 Z " fill="#FAFAFA" transform="translate(351.5,122.6875)"/>
<path d="M0 0 C1.52744879 13.67915246 1.52744879 13.67915246 -1.91015625 18.90234375 C-4.5180256 21.3892918 -7.24109381 23.68282879 -10 26 C-13.18479821 29.52291035 -16.09276284 33.24622956 -19 37 C-19.4345752 37.55816406 -19.86915039 38.11632812 -20.31689453 38.69140625 C-33.27583575 55.44826096 -47.34214882 76.09466715 -47.375 97.875 C-47.39949219 98.72191406 -47.42398438 99.56882812 -47.44921875 100.44140625 C-47.47847894 106.81037455 -45.95378857 111.40212725 -43 117 C-42.66444092 117.7223584 -42.32888184 118.4447168 -41.9831543 119.18896484 C-40.69356897 121.5644662 -39.46701716 121.96874237 -37 123 C-36.25363281 123.4021875 -35.50726563 123.804375 -34.73828125 124.21875 C-23.41092578 130.20163663 -12.58092874 130.48427692 0 131 C-2.21420968 133.21420968 -3.0838627 133.4373539 -6.0625 134.0625 C-6.77535156 134.21847656 -7.48820312 134.37445313 -8.22265625 134.53515625 C-16.29117138 135.88558283 -24.26330027 136.21067733 -32.4375 136.25 C-34.03948242 136.2809375 -34.03948242 136.2809375 -35.67382812 136.3125 C-46.69798407 136.36637492 -55.36926032 133.98678926 -64 127 C-70.8160089 120.1839911 -74.08866499 111.59315927 -74.3125 102.0625 C-73.94428786 69.07069213 -43.35640443 40.36131905 -21.625 18.5 C-20.98344971 17.85369629 -20.34189941 17.20739258 -19.6809082 16.54150391 C-3.08156687 0 -3.08156687 0 0 0 Z " fill="#FBFBFB" transform="translate(155,208)"/>
<path d="M0 0 C43.9867374 0 43.9867374 0 55.5625 5.9375 C57.01849609 6.66259766 57.01849609 6.66259766 58.50390625 7.40234375 C61.03805459 9.02435732 62.38788307 10.48683455 64 13 C61.29595302 12.57304521 58.60564511 12.13994073 55.9375 11.5234375 C48.75982909 9.89876199 41.71462164 9.57137784 34.375 9.375 C32.58255859 9.31699219 32.58255859 9.31699219 30.75390625 9.2578125 C27.83608264 9.16444214 24.91825079 9.07866422 22 9 C22.14008476 10.91178935 22.28568622 12.82317496 22.43359375 14.734375 C22.55432251 16.33104004 22.55432251 16.33104004 22.67749023 17.95996094 C23.05632083 21.53089101 23.84464433 24.61095669 25 28 C24.43152344 27.60167969 23.86304688 27.20335937 23.27734375 26.79296875 C22.50519531 26.26316406 21.73304688 25.73335937 20.9375 25.1875 C20.18339844 24.66542969 19.42929688 24.14335937 18.65234375 23.60546875 C15.38908854 21.54627557 15.38908854 21.54627557 9 19 C9 48.37 9 77.74 9 108 C6.03 108 3.06 108 0 108 C0 72.36 0 36.72 0 0 Z " fill="#FCFCFC" transform="translate(212,157)"/>
<path d="M0 0 C-1 3 -1 3 -3 5 C-0.36 7.64 2.28 10.28 5 13 C10.80342274 11.51194289 15.17590879 8.40902445 20 5 C20.99 5.495 20.99 5.495 22 6 C22 6.66 22 7.32 22 8 C19.91796875 9.4375 19.91796875 9.4375 17.1875 11 C14.39855144 12.60978272 11.68092187 14.21271876 9 16 C9.56847656 16.556875 10.13695312 17.11375 10.72265625 17.6875 C15.08598287 21.99983616 19.26164721 26.37905737 23.25390625 31.03515625 C25.09615675 33.10820324 27.02401662 35.05435802 29 37 C31.59982183 39.55990134 34.06268398 42.1677954 36.4375 44.9375 C39.71010493 48.74684196 43.23100437 52.24821109 46.8046875 55.7734375 C49.43191804 58.43806634 51.8639149 61.23379965 54.29296875 64.078125 C56.63272189 66.71235509 59.15518482 69.13566917 61.71484375 71.5546875 C63 73 63 73 63 75 C53.394417 75.25575873 43.79001902 75.45075651 34.1817646 75.56993389 C29.71923035 75.62715867 25.2590379 75.70465626 20.79785156 75.82983398 C16.48581126 75.95005861 12.17601073 76.01526518 7.86242294 76.04364967 C6.22358826 76.06385352 4.58486567 76.10331253 2.94699478 76.16303062 C-9.91478498 76.61299133 -9.91478498 76.61299133 -15.12408447 72.58340454 C-17.77392578 69.62036133 -17.77392578 69.62036133 -19.93533325 66.66145325 C-22.0910389 63.88264655 -23.94155246 62.65589523 -27 61 C-29.10546875 58.87109375 -29.10546875 58.87109375 -31.1875 56.4375 C-34.38625956 52.78101445 -37.66332807 49.28398286 -41.125 45.875 C-46.14924371 40.90553776 -51.07087976 35.89368037 -55 30 C-52 30 -52 30 -49.328125 32.34375 C-48.2936981 33.38758995 -47.26811255 34.44024169 -46.25 35.5 C-45.44103271 36.32540283 -45.44103271 36.32540283 -44.61572266 37.16748047 C-41.78090242 40.08073784 -39.02621135 43.04249111 -36.375 46.125 C-35.87149017 46.69695099 -35.36798035 47.26890198 -34.84921265 47.85818481 C-33.53716253 49.37784177 -32.27153471 50.9381377 -31.04019165 52.52389526 C-26.34014432 58.02068339 -22.94530031 60.63944696 -15.62255859 61.22705078 C-12.79383193 61.30250273 -9.9770371 61.25595235 -7.1484375 61.1953125 C-5.63813597 61.19910707 -4.12783974 61.20731035 -2.61758423 61.21969604 C1.32562251 61.24036198 5.26602761 61.20181006 9.2088623 61.15020752 C13.24473891 61.10810129 17.28038117 61.12297378 21.31640625 61.1328125 C29.21179612 61.1437815 37.10514214 61.09208927 45 61 C43.90785052 59.73819623 42.81370524 58.47811979 41.71875 57.21875 C40.80512695 56.1659082 40.80512695 56.1659082 39.87304688 55.09179688 C38.14053155 53.15694399 36.35481147 51.31696385 34.5 49.5 C32.06610268 47.10946833 29.78644441 44.64953738 27.5625 42.0625 C25.14382221 39.25423653 22.64100317 36.60029407 20 34 C16.74970017 30.79970478 13.75275755 27.45775424 10.78125 24 C8.9257479 21.91662922 6.98776899 19.95718793 5 18 C2.27746893 15.29873871 -0.40532152 12.57485158 -3 9.75 C-3.5775 9.12609375 -4.155 8.5021875 -4.75 7.859375 C-6 6 -6 6 -6 2 C-2.25 0 -2.25 0 0 0 Z " fill="#0B0A0D" transform="translate(299,296)"/>
<path d="M0 0 C6.88822592 0.8516352 12.51106648 8.31665256 16.5625 13.4375 C16.5625 14.4275 16.5625 15.4175 16.5625 16.4375 C12.48702282 15.91643443 10.69599573 13.85283328 7.9375 10.9375 C5.05972976 7.77056837 5.05972976 7.77056837 1.5625 5.4375 C1.36571956 29.96861449 1.24954142 54.49897851 1.22828102 79.03090096 C1.21654654 90.42266849 1.17883079 101.81322472 1.07910156 113.20458984 C0.99220319 123.1380128 0.95491824 133.07019811 0.97622812 143.00399959 C0.98579724 148.26039228 0.97119243 153.51411964 0.89708328 158.77005386 C0.8279719 163.7272922 0.82568206 168.68026305 0.87259102 173.6377182 C0.87831472 175.44766555 0.86052153 177.25788025 0.81624794 179.06729507 C0.6372974 186.85222409 0.50060992 193.47911889 5.79169846 199.61962509 C8.76325428 202.69735224 11.93318261 205.48132516 15.30402219 208.11376941 C16.5625 209.4375 16.5625 209.4375 16.5625 212.4375 C9.91677158 211.78827253 6.95563684 207.09291367 2.5625 202.4375 C2.2325 207.0575 1.9025 211.6775 1.5625 216.4375 C2.8825 217.0975 4.2025 217.7575 5.5625 218.4375 C7.55111285 220.21225365 9.4383702 221.98857276 11.3125 223.875 C11.81910156 224.36548828 12.32570312 224.85597656 12.84765625 225.36132812 C14.1484308 226.66034961 15.36238368 228.04495123 16.5625 229.4375 C16.5625 230.4275 16.5625 231.4175 16.5625 232.4375 C11.88058451 231.98011927 9.93145826 230.24639606 6.75 226.875 C5.95980469 226.04871094 5.16960937 225.22242188 4.35546875 224.37109375 C3.76378906 223.73300781 3.17210937 223.09492188 2.5625 222.4375 C1.50613841 231.08202827 1.50613841 231.08202827 4.203125 239.04296875 C6.89355898 241.69852673 9.73417489 243.85910057 12.828125 246.01953125 C13.68664062 246.72142578 13.68664062 246.72142578 14.5625 247.4375 C14.5625 248.0975 14.5625 248.7575 14.5625 249.4375 C12.5 249.875 12.5 249.875 9.5625 249.4375 C6.98989828 247.31669817 4.76995501 244.93122439 2.5625 242.4375 C2.2325 244.7475 1.9025 247.0575 1.5625 249.4375 C0.5725 249.4375 -0.4175 249.4375 -1.4375 249.4375 C-1.7675 247.1275 -2.0975 244.8175 -2.4375 242.4375 C-3.10845703 243.19546875 -3.10845703 243.19546875 -3.79296875 243.96875 C-8.79256003 249.34144511 -8.79256003 249.34144511 -12.375 249.875 C-13.055625 249.730625 -13.73625 249.58625 -14.4375 249.4375 C-12.93258981 245.55913145 -10.68346204 244.03851116 -7.375 241.625 C-3.2662971 238.10156557 -1.83156162 235.6947432 -1.38110352 230.44848633 C-1.28146256 227.43691824 -1.30267385 224.4472955 -1.4375 221.4375 C-2.0975 221.4375 -2.7575 221.4375 -3.4375 221.4375 C-3.69789063 222.02015625 -3.95828125 222.6028125 -4.2265625 223.203125 C-5.51693175 225.58406439 -6.92163496 227.2553497 -8.8125 229.1875 C-9.39773437 229.80109375 -9.98296875 230.4146875 -10.5859375 231.046875 C-12.4375 232.4375 -12.4375 232.4375 -16.4375 232.4375 C-15.85985562 229.30665901 -15.03719956 227.66006994 -12.78515625 225.421875 C-12.25599609 224.89335937 -11.72683594 224.36484375 -11.18164062 223.8203125 C-10.62669922 223.28148437 -10.07175781 222.74265625 -9.5 222.1875 C-8.94892578 221.63320313 -8.39785156 221.07890625 -7.83007812 220.5078125 C-3.70462592 216.4375 -3.70462592 216.4375 -1.4375 216.4375 C-1.4375 211.4875 -1.4375 206.5375 -1.4375 201.4375 C-2.0975 201.4375 -2.7575 201.4375 -3.4375 201.4375 C-3.68628906 202.02015625 -3.93507812 202.6028125 -4.19140625 203.203125 C-5.61321559 205.75257622 -7.17899311 207.27366159 -9.375 209.1875 C-10.06464844 209.80109375 -10.75429687 210.4146875 -11.46484375 211.046875 C-13.4375 212.4375 -13.4375 212.4375 -16.4375 212.4375 C-15.73544474 208.39699236 -13.93933706 207.01288062 -10.80492848 204.4281494 C-5.54229966 199.95157367 -1.79704746 196.02131578 -0.96053827 188.98228967 C-0.7375688 184.81882273 -0.77701256 180.68703558 -0.86987305 176.52026367 C-0.86366555 174.64642209 -0.85173461 172.77259216 -0.83456421 170.89881897 C-0.80429827 165.84881375 -0.85336038 160.80242185 -0.91744971 155.75285125 C-0.97085021 150.46242345 -0.95022943 145.17227651 -0.93769836 139.88166809 C-0.92513428 129.8800209 -0.97845536 119.87987085 -1.05586988 109.87855941 C-1.14081804 98.48547904 -1.15167858 87.0926971 -1.15653551 75.69934499 C-1.16816829 52.2781423 -1.27212736 28.85808641 -1.4375 5.4375 C-2.72393626 6.55190953 -4.00878869 7.66814756 -5.29296875 8.78515625 C-6.00864014 9.40656494 -6.72431152 10.02797363 -7.46166992 10.66821289 C-9.5504376 12.49038317 -9.5504376 12.49038317 -11.75 14.875 C-13.4375 16.4375 -13.4375 16.4375 -16.4375 16.4375 C-15.8149414 10.99011222 -11.22997331 7.32687134 -7.40234375 3.79296875 C-3.1965741 0.45162607 -3.1965741 0.45162607 0 0 Z " fill="#FBF7FE" transform="translate(184.4375,108.5625)"/>
<path d="M0 0 C3.650625 -0.165 7.30125 -0.33 11.0625 -0.5 C12.19953369 -0.57283203 13.33656738 -0.64566406 14.50805664 -0.72070312 C21.85847309 -0.88095836 21.85847309 -0.88095836 25.30810547 1.78125 C30 7.07721561 30 7.07721561 30 9 C23.07 9 16.14 9 9 9 C9 23.19 9 37.38 9 52 C-7.83 52 -24.66 52 -42 52 C-42 49.36 -42 46.72 -42 44 C-28.14 44 -14.28 44 0 44 C0 29.48 0 14.96 0 0 Z " fill="#FDFDFD" transform="translate(212,316)"/>
<path d="M0 0 C13.53 0 27.06 0 41 0 C41.66 0.66 42.32 1.32 43 2 C29.8 2 16.6 2 3 2 C3 37.64 3 73.28 3 110 C5.97 110 8.94 110 12 110 C12 80.63 12 51.26 12 21 C12.99 21 13.98 21 15 21 C15 50.37 15 79.74 15 110 C20.28 110 25.56 110 31 110 C30.67 110.66 30.34 111.32 30 112 C20.1 112 10.2 112 0 112 C0 75.04 0 38.08 0 0 Z " fill="#252229" transform="translate(209,155)"/>
<path d="M0 0 C15.13714214 2.35668081 29.81412795 10.73531742 41 21 C41.99332958 21.8986144 42.98682978 22.79704021 43.98046875 23.6953125 C46.06524872 25.5890905 48.13255621 27.49997139 50.19140625 29.421875 C52.430617 31.47733967 54.70299199 33.40173278 57.0625 35.3125 C69.15328938 45.86994603 80.15297284 62.43472565 84 78 C84.09375 80.80859375 84.09375 80.80859375 84 83 C83.34 83 82.68 83 82 83 C81.6596875 82.00742188 81.319375 81.01484375 80.96875 79.9921875 C76.43388398 67.13915431 70.60290491 55.68035256 62 45 C62.53109375 46.07636719 63.0621875 47.15273437 63.609375 48.26171875 C71.18308797 63.83159712 75.19010086 77.43960121 75.24023438 94.94873047 C75.24984555 96.96755721 75.28089016 98.98532151 75.3125 101.00390625 C75.36044387 113.26555076 73.54283625 124.98271283 69.3125 136.5625 C69.05831299 137.2652002 68.80412598 137.96790039 68.54223633 138.69189453 C64.09052573 150.50005357 57.43159627 160.61162685 49 170 C48.37609375 170.70640625 47.7521875 171.4128125 47.109375 172.140625 C41.27353601 178.3687893 33.18724439 185.27091854 25 188 C25.19140625 186.19921875 25.19140625 186.19921875 26 184 C28.15234375 182.39453125 28.15234375 182.39453125 30.9375 180.8125 C45.09944195 172.16510466 54.79491026 159.83047637 62 145 C62.5259375 143.93136719 63.051875 142.86273438 63.59375 141.76171875 C67.68307999 132.91152665 69.51488259 124.56244661 71 115 C71.2784375 113.83984375 71.2784375 113.83984375 71.5625 112.65625 C73.56381675 100.50539828 72.36509408 87.00624195 70 75 C69.82855469 74.02417969 69.65710938 73.04835938 69.48046875 72.04296875 C64.87044584 49.82563255 49.27160493 29.29939378 30.75 16.6875 C23.26755532 11.77938876 15.27463892 8.33284068 7 5 C4.66182031 4.01090034 2.3308811 3.00624377 0 2 C0 1.34 0 0.68 0 0 Z " fill="#130F17" transform="translate(274,110)"/>
<path d="M0 0 C101 0 101 0 110 2 C110 2.33 110 2.66 110 3 C74.36 2.67 38.72 2.34 2 2 C2 78.56 2 155.12 2 234 C1.34 234.33 0.68 234.66 0 235 C0 157.45 0 79.9 0 0 Z " fill="#000101" transform="translate(155,106)"/>
<path d="M0 0 C8.87537107 -0.16251903 17.75022651 -0.2867329 26.62676334 -0.3626852 C30.74902636 -0.39914774 34.8702681 -0.44856523 38.99194336 -0.52807617 C42.97316384 -0.60439295 46.95340509 -0.64604276 50.93530083 -0.6641407 C52.45081429 -0.67702954 53.96627686 -0.70220032 55.48137093 -0.7401104 C67.3105302 -1.02419944 67.3105302 -1.02419944 71.53146362 1.53463745 C73.33822756 3.27527928 74.75321857 4.8264069 76 7 C76 7.66 76 8.32 76 9 C67.27235487 9.18587393 58.54539725 9.32776174 49.81620026 9.41449738 C45.76216925 9.45614057 41.70949828 9.51256029 37.65625 9.60351562 C33.73983028 9.6908442 29.82471305 9.7383558 25.90739441 9.75901794 C24.4177755 9.77372926 22.92822298 9.80245963 21.43916321 9.84584045 C9.78904352 10.17155085 9.78904352 10.17155085 5.25268555 7.20092773 C3.24382584 5.23163415 1.54647605 3.34654568 0 1 C0 0.67 0 0.34 0 0 Z " fill="#F6F6F6" transform="translate(280,359)"/>
<path d="M0 0 C15.13714214 2.35668081 29.81412795 10.73531742 41 21 C41.99332958 21.8986144 42.98682978 22.79704021 43.98046875 23.6953125 C46.06524872 25.5890905 48.13255621 27.49997139 50.19140625 29.421875 C52.430617 31.47733967 54.70299199 33.40173278 57.0625 35.3125 C69.15328938 45.86994603 80.15297284 62.43472565 84 78 C84.09375 80.80859375 84.09375 80.80859375 84 83 C83.34 83 82.68 83 82 83 C81.6596875 82.00742188 81.319375 81.01484375 80.96875 79.9921875 C75.65991514 64.93711556 67.95615871 45.28282924 53 38 C50.796875 35.8359375 50.796875 35.8359375 48.75 33.375 C36.96084902 19.85677354 23.4638686 11.62856467 7 5 C4.6619412 4.01064294 2.33091951 3.00613108 0 2 C0 1.34 0 0.68 0 0 Z " fill="#08070B" transform="translate(274,110)"/>
<path d="M0 0 C4.269375 -0.20625 8.53875 -0.4125 12.9375 -0.625 C14.92898071 -0.76156006 14.92898071 -0.76156006 16.96069336 -0.90087891 C22.1225398 -1.02093085 25.63928956 -1.00379147 29.88720703 2.12988281 C36 8.65354938 36 8.65354938 36 14 C32.54173658 14.05789006 29.08359707 14.09355821 25.625 14.125 C24.64015625 14.14175781 23.6553125 14.15851563 22.640625 14.17578125 C21.69960937 14.18222656 20.75859375 14.18867188 19.7890625 14.1953125 C18.48509521 14.21102295 18.48509521 14.21102295 17.15478516 14.22705078 C15 14 15 14 13 12 C13 25.86 13 39.72 13 54 C12.67 54 12.34 54 12 54 C12 39.81 12 25.62 12 11 C21.9 10.505 21.9 10.505 32 10 C27.14149717 3.06959241 27.14149717 3.06959241 23.11572266 2.11352539 C22.1416748 2.10828857 21.16762695 2.10305176 20.1640625 2.09765625 C19.2045166 2.07453369 18.2449707 2.05141113 17.25634766 2.02758789 C16.05800293 2.03910889 14.8596582 2.05062988 13.625 2.0625 C9.78875 2.041875 5.9525 2.02125 2 2 C2 16.19 2 30.38 2 45 C-1.63 45 -5.26 45 -9 45 C-9 44.34 -9 43.68 -9 43 C-6.03 43 -3.06 43 0 43 C0 28.81 0 14.62 0 0 Z " fill="#211D25" transform="translate(209,314)"/>
<path d="M0 0 C6.93 0 13.86 0 21 0 C21 0.33 21 0.66 21 1 C14.73 1 8.46 1 2 1 C2 15.52 2 30.04 2 45 C-16.81 45 -35.62 45 -55 45 C-55 41.37 -55 37.74 -55 34 C-54.67 34 -54.34 34 -54 34 C-54 36.97 -54 39.94 -54 43 C-36.51 42.67 -19.02 42.34 -1 42 C-0.67 28.14 -0.34 14.28 0 0 Z " fill="#030406" transform="translate(222,326)"/>
<path d="M0 0 C0.33 0 0.66 0 1 0 C1 14.52 1 29.04 1 44 C-12.86 44 -26.72 44 -41 44 C-41 43.67 -41 43.34 -41 43 C-37.04 43 -33.08 43 -29 43 C-29 42.34 -29 41.68 -29 41 C-30.98 41 -32.96 41 -35 41 C-34.02433888 39.83040013 -33.044375 38.66438823 -32.0625 37.5 C-31.51722656 36.8503125 -30.97195312 36.200625 -30.41015625 35.53125 C-29.94480469 35.0259375 -29.47945312 34.520625 -29 34 C-28.67 34 -28.34 34 -28 34 C-28 36.64 -28 39.28 -28 42 C-27.01 42 -26.02 42 -25 42 C-25 39.36 -25 36.72 -25 34 C-23.85373678 34.97866338 -22.70800212 35.95794587 -21.5625 36.9375 C-20.92441406 37.48277344 -20.28632813 38.02804687 -19.62890625 38.58984375 C-18.73008851 39.36795695 -17.84063472 40.15936528 -17 41 C-15.00041636 41.04080783 -12.99954746 41.04254356 -11 41 C-11 41.66 -11 42.32 -11 43 C-7.37 43 -3.74 43 0 43 C0 28.81 0 14.62 0 0 Z " fill="#969696" transform="translate(211,316)"/>
<path d="M0 0 C0.33 0 0.66 0 1 0 C1 5.61 1 11.22 1 17 C9.25 17 17.5 17 26 17 C26 17.66 26 18.32 26 19 C22.04 19 18.08 19 14 19 C14 21.97 14 24.94 14 28 C30.83 28 47.66 28 65 28 C65 28.33 65 28.66 65 29 C47.51 29 30.02 29 12 29 C11.67 26.03 11.34 23.06 11 20 C7.04 19.67 3.08 19.34 -1 19 C-1.02683987 16.02077407 -1.04676037 13.04178705 -1.0625 10.0625 C-1.07087891 9.21236328 -1.07925781 8.36222656 -1.08789062 7.48632812 C-1.09111328 6.67744141 -1.09433594 5.86855469 -1.09765625 5.03515625 C-1.10289307 4.2862915 -1.10812988 3.53742676 -1.11352539 2.76586914 C-1 1 -1 1 0 0 Z " fill="#1B1B1B" transform="translate(156,340)"/>
<path d="M0 0 C3.7335791 0.93177711 4.8673121 1.79956201 7.02734375 5.0625 C7.68457948 6.3648472 8.3201078 7.67829887 8.9375 9 C9.27595947 9.70334473 9.61441895 10.40668945 9.96313477 11.13134766 C15.10126824 22.13351055 19.60524765 33.76267704 20 46 C19.34 46 18.68 46 18 46 C17.67 47.32 17.34 48.64 17 50 C16.89042969 49.12859375 16.78085937 48.2571875 16.66796875 47.359375 C14.57764584 31.65646146 10.80223738 17.81593476 1.74609375 4.6484375 C0 2 0 2 0 0 Z " fill="#18151B" transform="translate(329,149)"/>
<path d="M0 0 C1 3 1 3 -0.15234375 5.453125 C-8.52751895 18.5748437 -19.72539932 26.31110979 -35 30 C-37.4375 29.625 -37.4375 29.625 -39 29 C-36.46109329 26.46109329 -34.45811834 26.1797771 -31 25.25 C-16.73230251 20.97126382 -7.67076654 12.55216342 0 0 Z " fill="#08050C" transform="translate(288,235)"/>
<path d="M0 0 C0.33 0 0.66 0 1 0 C1 2.64 1 5.28 1 8 C1.99 8 2.98 8 4 8 C4 5.36 4 2.72 4 0 C5.12894876 0.93274109 6.25300876 1.87140122 7.375 2.8125 C8.00148437 3.33457031 8.62796875 3.85664063 9.2734375 4.39453125 C11 6 11 6 13 9 C8.71 9 4.42 9 0 9 C0 8.34 0 7.68 0 7 C-1.98 7 -3.96 7 -6 7 C-5.02433888 5.83040013 -4.044375 4.66438823 -3.0625 3.5 C-2.51722656 2.8503125 -1.97195312 2.200625 -1.41015625 1.53125 C-0.71212891 0.77328125 -0.71212891 0.77328125 0 0 Z " fill="#6F4597" transform="translate(182,350)"/>
<path d="M0 0 C3.37673677 4.50231569 3.37673677 4.50231569 3.328125 8.1171875 C3.32296875 8.88933594 3.3178125 9.66148437 3.3125 10.45703125 C3.291875 11.25496094 3.27125 12.05289063 3.25 12.875 C3.24484375 13.66519531 3.2396875 14.45539063 3.234375 15.26953125 C3.17660045 19.60984434 2.8515162 23.72868487 2 28 C1.34 28 0.68 28 0 28 C0 18.76 0 9.52 0 0 Z " fill="#09060E" transform="translate(291,196)"/>
<path d="M0 0 C0 5.67576252 -5.34291128 9.94846412 -9 14 C-11.57168958 16.4618966 -14.21823737 18.77913774 -17 21 C-17.66 20.67 -18.32 20.34 -19 20 C-18.26394531 19.20335937 -17.52789062 18.40671875 -16.76953125 17.5859375 C-15.78378001 16.5156933 -14.79810712 15.44537693 -13.8125 14.375 C-13.32974609 13.85292969 -12.84699219 13.33085937 -12.34960938 12.79296875 C-9.92838872 10.16050066 -7.57680486 7.50534327 -5.32421875 4.7265625 C-3 2 -3 2 0 0 Z " fill="#090A0B" transform="translate(342,280)"/>
<path d="M0 0 C5.75 0.875 5.75 0.875 8 2 C8.33 1.34 8.66 0.68 9 0 C13.48110272 4.7266426 16.81499106 8.83056298 19 15 C18.01 15 17.02 15 16 15 C14.78125 13.171875 14.78125 13.171875 13.5 10.75 C9.92889988 4.99454676 5.35482871 3.61697599 -1 2 C-0.67 1.34 -0.34 0.68 0 0 Z " fill="#08050C" transform="translate(270,169)"/>
<path d="M0 0 C0.33 0 0.66 0 1 0 C1.39363688 7.74152536 -0.05789567 14.52058632 -2 22 C-2.66 22 -3.32 22 -4 22 C-2.38297872 2.38297872 -2.38297872 2.38297872 0 0 Z " fill="#09090A" transform="translate(360,227)"/>
<path d="M0 0 C2.35980046 3.5397007 2.58600808 5.99106288 3.125 10.1875 C3.29257812 11.45980469 3.46015625 12.73210937 3.6328125 14.04296875 C3.75398438 15.01878906 3.87515625 15.99460938 4 17 C3.34 17 2.68 17 2 17 C1.67 18.32 1.34 19.64 1 21 C0.86722656 20.05898437 0.73445313 19.11796875 0.59765625 18.1484375 C0.42105469 16.90320313 0.24445313 15.65796875 0.0625 14.375 C-0.19853516 12.53035156 -0.19853516 12.53035156 -0.46484375 10.6484375 C-0.93774301 7.42443816 -1.45151002 4.21187824 -2 1 C-1.34 0.67 -0.68 0.34 0 0 Z " fill="#281F31" transform="translate(345,178)"/>
<path d="M0 0 C-3.84919283 4.33034194 -7.72289646 6.6560756 -13 9 C-12.64463519 6.18771639 -12.19649652 5.17418516 -10.0390625 3.26171875 C-9.24242187 2.74222656 -8.44578125 2.22273438 -7.625 1.6875 C-6.83351563 1.15511719 -6.04203125 0.62273437 -5.2265625 0.07421875 C-3 -1 -3 -1 0 0 Z " fill="#1A161D" transform="translate(312,289)"/>
<path d="M0 0 C0.66 0.33 1.32 0.66 2 1 C2 1.66 2 2.32 2 3 C0.35546875 4.2890625 0.35546875 4.2890625 -1.8125 5.625 C-2.52019531 6.07101562 -3.22789062 6.51703125 -3.95703125 6.9765625 C-6 8 -6 8 -9 8 C-7.83917375 4.51752126 -7.09067524 4.11180756 -4.0625 2.25 C-3.35222656 1.80140625 -2.64195312 1.3528125 -1.91015625 0.890625 C-1.27980469 0.59671875 -0.64945312 0.3028125 0 0 Z " fill="#0C0D0E" transform="translate(319,301)"/>
<path d="M0 0 C0.88336837 2.4667645 1.1312406 3.63859372 0.22265625 6.140625 C-0.16019531 6.83671875 -0.54304688 7.5328125 -0.9375 8.25 C-1.31777344 8.95640625 -1.69804687 9.6628125 -2.08984375 10.390625 C-2.39019531 10.92171875 -2.69054687 11.4528125 -3 12 C-3.99 12 -4.98 12 -6 12 C-4.68139111 7.38486888 -2.78644563 3.90102388 0 0 Z " fill="#0E0E0F" transform="translate(352,261)"/>
<path d="M0 0 C2.42945561 3.64418341 2.0828781 4.92923364 1.625 9.1875 C1.51414062 10.27417969 1.40328125 11.36085937 1.2890625 12.48046875 C1.19367188 13.31191406 1.09828125 14.14335937 1 15 C0.01 15 -0.98 15 -2 15 C-1.34 10.05 -0.68 5.1 0 0 Z " fill="#1F1627" transform="translate(346,220)"/>
<path d="M0 0 C1.79244141 0.01740234 1.79244141 0.01740234 3.62109375 0.03515625 C5.41740234 0.04869141 5.41740234 0.04869141 7.25 0.0625 C8.17683594 0.07410156 9.10367188 0.08570313 10.05859375 0.09765625 C10.05859375 0.75765625 10.05859375 1.41765625 10.05859375 2.09765625 C6.09859375 2.09765625 2.13859375 2.09765625 -1.94140625 2.09765625 C-1.94140625 5.06765625 -1.94140625 8.03765625 -1.94140625 11.09765625 C-2.27140625 11.09765625 -2.60140625 11.09765625 -2.94140625 11.09765625 C-3.13547103 9.45258407 -3.3214856 7.80656031 -3.50390625 6.16015625 C-3.60832031 5.24363281 -3.71273437 4.32710938 -3.8203125 3.3828125 C-3.86027344 2.62871094 -3.90023437 1.87460937 -3.94140625 1.09765625 C-2.94140625 0.09765625 -2.94140625 0.09765625 0 0 Z " fill="#373737" transform="translate(171.94140625,356.90234375)"/>
<path d="M0 0 C4.60862461 1.49102561 7.53330244 3.69454418 11 7 C11 7.99 11 8.98 11 10 C9 10 9 10 6.625 7.6875 C5.75875 6.800625 4.8925 5.91375 4 5 C3.236875 4.443125 2.47375 3.88625 1.6875 3.3125 C1.130625 2.879375 0.57375 2.44625 0 2 C0 1.34 0 0.68 0 0 Z " fill="#120F15" transform="translate(267,161)"/>
<path d="M0 0 C0.33 0 0.66 0 1 0 C1 2.31 1 4.62 1 7 C-1.31 7 -3.62 7 -6 7 C-5.02433888 5.83040013 -4.044375 4.66438823 -3.0625 3.5 C-2.51722656 2.8503125 -1.97195312 2.200625 -1.41015625 1.53125 C-0.71212891 0.77328125 -0.71212891 0.77328125 0 0 Z " fill="#B166F7" transform="translate(182,350)"/>
<path d="M0 0 C-1 3 -1 3 -3 5 C-2.01 6.485 -2.01 6.485 -1 8 C-4 8 -4 8 -5.6875 6.5 C-6.120625 6.005 -6.55375 5.51 -7 5 C-6 2 -6 2 -4.0625 0.8125 C-2 0 -2 0 0 0 Z " fill="#0C090E" transform="translate(299,296)"/>
<path d="M0 0 C1.12377697 3.30435084 0.89554742 5.0506862 -0.4375 8.25 C-0.72496094 8.95640625 -1.01242187 9.6628125 -1.30859375 10.390625 C-1.53675781 10.92171875 -1.76492188 11.4528125 -2 12 C-2.66 12 -3.32 12 -4 12 C-3.71640113 10.5608866 -3.42278601 9.12374482 -3.125 7.6875 C-2.96257812 6.88699219 -2.80015625 6.08648437 -2.6328125 5.26171875 C-2 3 -2 3 0 0 Z " fill="#0B080E" transform="translate(345,234)"/>
<path d="M0 0 C3 1 3 1 4.1875 2.875 C5 5 5 5 5 8 C4.34 8 3.68 8 3 8 C0 2.25 0 2.25 0 0 Z " fill="#0E0C11" transform="translate(336,160)"/>
<path d="M0 0 C0.93065133 2.60582371 1.14917407 3.64198224 0.0625 6.25 C-0.4634375 7.11625 -0.4634375 7.11625 -1 8 C-1.66 8 -2.32 8 -3 8 C-2.25 2.25 -2.25 2.25 0 0 Z " fill="#060409" transform="translate(291,226)"/>
<path d="M0 0 C1.98 0.66 3.96 1.32 6 2 C6 2.99 6 3.98 6 5 C3.69 4.34 1.38 3.68 -1 3 C-0.67 2.01 -0.34 1.02 0 0 Z " fill="#0F0917" transform="translate(282,112)"/>
</svg>
